<?xml version="1.0" standalone="no"?>
<!DOCTYPE svg PUBLIC "-//W3C//DTD SVG 20010904//EN"
 "http://www.w3.org/TR/2001/REC-SVG-20010904/DTD/svg10.dtd">
<svg version="1.0" xmlns="http://www.w3.org/2000/svg"
 width="600.000000pt" height="600.000000pt" viewBox="0 0 600.000000 600.000000"
 preserveAspectRatio="xMidYMid meet">

<g transform="translate(0.000000,600.000000) scale(0.100000,-0.100000)"
fill="#000000" stroke="none">
<path d="M2952 5178 c-155 -274 -291 -512 -407 -713 -266 -461 -315 -546 -315
-549 0 -2 32 -3 71 -2 l72 1 55 95 c30 52 100 176 157 275 214 378 399 695
404 695 3 0 37 -56 75 -123 38 -67 129 -225 201 -352 214 -372 647 -1130 803
-1405 80 -140 208 -365 285 -500 77 -135 157 -274 177 -310 20 -36 83 -146
140 -245 56 -99 151 -265 210 -370 59 -104 148 -260 197 -345 177 -307 211
-367 271 -472 33 -59 57 -109 54 -112 -3 -3 -262 -7 -576 -7 -314 -1 -562 -4
-551 -6 20 -4 44 -43 49 -81 2 -10 -5 -20 -18 -24 -12 -3 279 -6 647 -7 367
-1 667 1 667 3 0 6 -321 571 -650 1141 -31 55 -151 264 -265 465 -114 201
-231 406 -260 455 -68 117 -197 341 -303 530 -46 83 -128 227 -182 320 -156
272 -889 1560 -940 1653 -13 23 -27 42 -31 42 -4 0 -21 -24 -37 -52z"/>
<path d="M2866 4542 c-165 -286 -254 -442 -315 -545 -28 -49 -51 -90 -51 -93
0 -2 6 -4 14 -4 7 0 87 129 176 288 90 158 194 338 231 401 66 111 67 113 82
90 8 -13 124 -215 257 -449 133 -234 267 -468 298 -520 31 -52 67 -115 80
-140 13 -25 37 -65 52 -90 15 -25 51 -88 80 -140 30 -52 96 -169 148 -260 52
-91 108 -190 125 -220 16 -30 33 -59 37 -65 4 -5 32 -53 61 -105 93 -168 122
-219 329 -580 111 -195 259 -454 328 -575 68 -121 178 -313 243 -426 111 -193
130 -231 112 -228 -38 6 -1048 -5 -1018 -11 41 -8 1075 -14 1075 -6 0 2 -51
91 -113 198 -124 211 -151 258 -192 333 -48 86 -504 885 -560 980 -29 50 -117
203 -195 340 -78 138 -195 342 -260 455 -65 113 -175 306 -245 430 -303 535
-354 625 -455 800 -59 102 -126 220 -150 262 -23 43 -45 80 -48 82 -4 2 -61
-89 -126 -202z"/>
<path d="M2923 4160 c-108 -22 -211 -100 -258 -193 -38 -77 -35 -89 35 -122
32 -15 57 -32 55 -36 -3 -4 8 -15 23 -24 30 -20 62 -51 62 -61 0 -3 -7 -1 -15
6 -31 26 -13 1 34 -47 29 -31 51 -64 55 -83 12 -61 10 -63 -33 -39 -24 13 -49
20 -65 17 -14 -3 -26 -1 -26 5 0 5 -7 4 -15 -3 -18 -15 -20 1 -3 18 9 9 6 12
-15 12 -21 0 -27 -5 -27 -21 0 -11 -4 -17 -10 -14 -20 13 -9 -5 23 -34 33 -32
54 -41 41 -18 -4 7 -3 9 2 4 5 -5 9 -14 9 -20 0 -7 23 -23 50 -37 42 -21 64
-24 145 -25 84 0 102 3 151 28 142 69 227 235 200 386 -20 107 -66 181 -145
236 -86 58 -187 82 -273 65z m197 -57 c71 -31 136 -94 168 -163 36 -76 38
-201 4 -275 -41 -90 -126 -159 -232 -191 -74 -22 -79 -18 -75 63 1 37 3 189 4
336 l1 268 38 -7 c20 -3 62 -17 92 -31z"/>
<path d="M1991 3492 c-45 -77 -49 -92 -25 -92 8 0 12 5 9 10 -3 6 1 10 10 10
11 0 15 -5 11 -15 -3 -8 -1 -15 4 -15 6 0 10 -5 10 -11 0 -8 -4 -8 -12 -1 -7
5 -24 12 -37 14 -21 3 -32 -8 -76 -82 -55 -90 -125 -216 -125 -224 0 -3 12 1
26 9 15 7 33 11 40 8 7 -3 26 5 40 16 21 16 29 19 35 9 10 -15 5 -21 67 82 53
85 62 115 40 123 -7 2 -4 3 7 1 15 -2 26 8 44 39 86 152 85 151 22 161 -19 2
-37 10 -41 17 -5 7 -23 -15 -49 -59z m-61 -232 c0 -5 -7 -7 -15 -4 -8 4 -15 8
-15 10 0 2 7 4 15 4 8 0 15 -4 15 -10z"/>
<path d="M2501 3424 c-30 -8 -71 -24 -92 -36 -33 -18 -36 -23 -23 -35 8 -8 14
-21 14 -29 0 -8 5 -12 10 -9 6 3 10 -1 10 -9 0 -26 110 -136 135 -136 13 0 25
4 27 10 2 5 20 10 41 12 31 2 44 10 68 40 17 20 52 52 80 69 27 18 48 37 46
43 -11 34 -164 97 -231 95 -17 0 -55 -7 -85 -15z m202 -111 c-7 -2 -19 -2 -25
0 -7 3 -2 5 12 5 14 0 19 -2 13 -5z m-135 -118 c-3 -3 -9 2 -12 12 -6 14 -5
15 5 6 7 -7 10 -15 7 -18z"/>
<path d="M3321 3429 c-54 -9 -141 -50 -163 -77 -10 -11 -9 -16 4 -23 83 -46
156 -138 179 -224 26 -96 -13 -245 -82 -310 -16 -16 -29 -34 -29 -40 0 -20 82
-40 165 -40 66 0 90 5 140 28 203 94 275 340 155 527 -80 122 -222 184 -369
159z m214 -54 c160 -78 232 -282 156 -440 -38 -78 -91 -131 -169 -168 -58 -27
-70 -29 -152 -25 -49 2 -92 7 -95 10 -4 3 9 26 28 51 53 70 72 129 71 222 -1
116 -29 183 -110 263 l-63 62 32 17 c97 50 210 54 302 8z"/>
<path d="M2153 3295 c-61 -109 -105 -195 -99 -195 7 0 75 106 117 184 58 109
43 118 -18 11z"/>
<path d="M2225 3080 c-10 -32 5 -104 18 -91 6 6 21 11 34 11 16 0 23 6 23 20
0 11 -3 20 -7 20 -5 0 -17 14 -28 30 -24 35 -31 37 -40 10z"/>
<path d="M2364 3065 c-13 -20 -14 -28 -4 -40 7 -8 18 -15 25 -15 6 0 20 -9 30
-20 36 -39 65 -21 65 40 0 57 -85 83 -116 35z"/>
<path d="M1529 2687 c-37 -61 -75 -128 -84 -147 -10 -19 -23 -42 -30 -50 -7
-8 -30 -49 -51 -90 -21 -41 -71 -131 -111 -199 -40 -67 -73 -125 -73 -127 0
-2 -13 -25 -28 -51 -97 -163 -172 -305 -166 -316 4 -6 3 -9 -1 -4 -9 8 -59
-66 -130 -193 -94 -168 -163 -288 -192 -335 -16 -27 -47 -81 -68 -120 -31 -58
-33 -66 -14 -50 20 18 22 18 16 2 -4 -11 -3 -16 3 -12 6 3 10 17 10 31 0 14 4
22 10 19 6 -3 10 -1 10 5 0 6 4 9 9 6 5 -3 22 1 37 9 35 18 57 19 49 3 -4 -7
3 -3 14 10 33 38 338 582 326 582 -2 0 -11 -12 -18 -27 l-14 -26 -12 36 c-7
19 -15 38 -19 40 -4 2 -1 2 6 1 12 -4 37 44 28 54 -3 2 1 11 9 19 19 19 19 37
0 29 -8 -3 -15 -1 -15 4 0 6 5 10 10 10 6 0 17 15 25 33 8 17 14 26 15 18 0
-10 3 -11 14 -2 10 9 15 8 19 -3 3 -8 -1 -16 -9 -18 -11 -2 -10 -6 5 -15 17
-11 19 -10 14 4 -5 12 -3 14 8 8 12 -7 12 -6 1 7 -7 8 -9 24 -5 33 4 13 3 16
-5 11 -7 -4 -12 -3 -12 3 0 5 4 12 8 15 16 10 32 -11 34 -46 2 -20 5 -34 8
-31 8 7 6 73 -2 73 -5 0 -8 5 -8 10 0 6 9 10 20 10 18 0 25 10 21 32 0 5 3 7
8 5 4 -1 18 9 30 23 l22 25 -21 -42 c-11 -24 -18 -43 -15 -43 7 0 49 83 47 93
-1 4 2 7 7 7 5 0 11 7 14 14 4 11 1 13 -11 10 -10 -4 -13 -2 -7 3 6 4 16 20
24 35 8 16 17 26 20 23 2 -3 -1 -11 -7 -17 -7 -7 -12 -17 -12 -22 0 -6 9 3 20
19 11 17 17 39 14 50 -4 15 -3 16 4 6 5 -7 12 -9 15 -5 2 5 14 25 25 45 43 77
47 85 63 104 40 50 182 317 184 345 1 14 5 35 9 46 4 15 1 28 -11 39 -11 12
-16 30 -14 56 1 22 1 39 -1 39 -2 0 -33 -51 -69 -113z m-188 -401 c5 3 9 1 9
-5 0 -5 -4 -13 -10 -16 -5 -3 -10 -4 -10 -1 0 2 -2 10 -3 18 -2 7 -2 10 0 5 3
-4 9 -5 14 -1z m59 -27 c0 -6 -4 -7 -10 -4 -5 3 -10 11 -10 16 0 6 5 7 10 4 6
-3 10 -11 10 -16z m-67 -46 c-9 -22 -30 -14 -27 10 1 12 3 23 3 25 1 1 7 -3
15 -10 7 -7 11 -19 9 -25z m-51 -5 c-7 -7 -12 -8 -12 -2 0 6 3 14 7 17 3 4 9
5 12 2 2 -3 -1 -11 -7 -17z m-151 -255 c-12 -20 -14 -14 -5 12 4 9 9 14 11 11
3 -2 0 -13 -6 -23z m29 -21 c0 -5 -7 -9 -15 -9 -8 0 -12 4 -9 9 3 4 9 8 15 8
5 0 9 -4 9 -8z m-149 -209 c-8 -15 -10 -15 -11 -2 0 17 10 32 18 25 2 -3 -1
-13 -7 -23z m-23 -64 c12 -19 11 -19 -8 -9 -11 6 -20 15 -20 20 0 17 15 11 28
-11z m-37 -32 c-10 -9 -11 -8 -5 6 3 10 9 15 12 12 3 -3 0 -11 -7 -18z m69
-37 c0 -5 -7 -7 -15 -4 -8 4 -15 8 -15 10 0 2 7 4 15 4 8 0 15 -4 15 -10z"/>
<path d="M3705 2724 c-38 -10 -75 -26 -75 -35 0 -4 21 -18 47 -31 62 -30 125
-93 159 -160 23 -44 28 -69 32 -150 4 -87 2 -101 -22 -153 -35 -76 -76 -127
-136 -165 -28 -18 -50 -36 -50 -40 0 -13 31 -21 101 -27 124 -11 238 34 315
122 140 160 134 386 -15 535 -71 71 -147 103 -251 106 -47 2 -94 1 -105 -2z
m232 -49 c76 -34 140 -98 179 -180 29 -59 34 -80 34 -140 0 -120 -34 -199
-116 -275 -71 -65 -144 -95 -236 -95 -80 0 -106 9 -73 27 41 23 109 103 139
167 27 59 31 76 31 156 0 81 -3 97 -33 160 -35 73 -84 132 -140 167 -19 11
-30 24 -25 28 26 26 168 17 240 -15z"/>
<path d="M2243 2712 c3 -11 -45 -67 -66 -75 -9 -3 -17 -13 -17 -21 0 -26 -17
-26 -61 -2 -60 32 -113 39 -133 18 -21 -24 -11 -125 15 -142 5 -3 10 -33 12
-65 9 -119 32 -166 79 -163 30 2 30 2 27 63 -2 58 12 123 38 175 11 22 10 26
-10 38 -22 13 -22 13 4 8 20 -4 33 3 65 35 21 23 63 54 92 71 57 33 62 42 33
58 -23 12 -82 14 -78 2z m-143 -112 c0 -5 -5 -10 -11 -10 -5 0 -7 5 -4 10 3 6
8 10 11 10 2 0 4 -4 4 -10z m-10 -195 c0 -5 -5 -3 -10 5 -5 8 -10 20 -10 25 0
6 5 3 10 -5 5 -8 10 -19 10 -25z"/>
<path d="M2185 2401 c32 -54 83 -74 55 -21 -8 15 -8 20 -1 16 6 -4 11 0 11 11
1 17 1 17 14 1 12 -16 35 -18 235 -18 214 0 221 1 221 20 0 19 -7 20 -260 20
-186 0 -260 -3 -260 -11 0 -8 -6 -7 -17 2 -15 12 -14 9 2 -20z"/>
<path d="M3093 2424 c-7 -3 -9 -12 -6 -20 4 -12 57 -14 330 -14 l325 0 -14
-22 c-47 -72 -87 -158 -82 -175 4 -13 3 -15 -4 -4 -10 14 -10 15 -44 -49 -13
-25 -37 -67 -53 -94 -16 -27 -23 -46 -15 -41 10 6 12 4 7 -9 -4 -10 -7 -21 -7
-24 0 -4 -4 -1 -9 6 -7 11 -9 10 -14 -3 -5 -11 -3 -14 5 -9 8 5 9 2 5 -9 -15
-39 5 -11 64 91 34 59 81 139 104 177 23 39 59 100 79 138 l38 67 -349 -1
c-191 0 -353 -3 -360 -5z m470 -389 c-3 -9 -8 -14 -10 -11 -3 3 -2 9 2 15 9
16 15 13 8 -4z"/>
<path d="M1619 2358 c-36 -56 -43 -67 -83 -135 -29 -51 -81 -162 -68 -148 48
55 200 320 190 331 -3 2 -20 -20 -39 -48z"/>
<path d="M2320 2221 c0 -6 4 -13 10 -16 6 -3 7 1 4 9 -7 18 -14 21 -14 7z"/>
<path d="M3020 2200 c0 -10 17 -15 87 -24 23 -3 48 -9 57 -12 9 -3 16 -1 16 4
0 10 -25 22 -56 26 -7 1 -17 5 -20 9 -11 11 -84 8 -84 -3z"/>
<path d="M3190 2159 c0 -5 5 -7 10 -4 6 3 10 8 10 11 0 2 -4 4 -10 4 -5 0 -10
-5 -10 -11z"/>
<path d="M2980 2140 c0 -11 26 -18 90 -23 25 -2 53 -7 64 -12 14 -6 18 -5 14
6 -2 8 -18 15 -34 17 -16 2 -33 8 -38 13 -13 12 -96 12 -96 -1z"/>
<path d="M3245 2140 c-3 -5 -2 -10 4 -10 5 0 17 -7 26 -16 9 -9 19 -13 23 -9
4 4 1 10 -6 12 -7 3 -19 11 -27 19 -8 9 -16 10 -20 4z"/>
<path d="M3310 2094 c0 -10 2 -15 5 -12 3 3 21 -10 41 -28 19 -19 40 -34 46
-34 14 0 -26 44 -64 72 -26 18 -28 18 -28 2z"/>
<path d="M3160 2091 c0 -5 5 -13 10 -16 6 -3 10 -2 10 4 0 5 -4 13 -10 16 -5
3 -10 2 -10 -4z"/>
<path d="M2186 2083 c-3 -3 -6 -24 -6 -45 0 -27 4 -37 12 -32 7 5 9 2 6 -8 -4
-8 -2 -21 2 -29 8 -12 14 -12 42 0 18 8 44 14 58 14 14 0 19 2 12 4 -6 3 -10
8 -7 13 3 5 -4 12 -16 15 -12 4 -38 22 -59 41 -20 18 -40 31 -44 27z"/>
<path d="M2960 2071 c-93 -23 -163 -130 -134 -205 3 -9 12 -16 20 -16 8 0 14
-4 14 -10 0 -5 -5 -10 -12 -10 -6 0 -9 -3 -6 -6 4 -3 18 2 32 11 23 15 26 15
26 2 0 -8 -5 -17 -11 -19 -8 -3 -6 -10 5 -21 10 -9 15 -21 11 -26 -5 -10 24
-31 43 -31 5 0 12 44 16 98 9 118 14 142 32 142 8 0 14 7 14 16 0 10 -6 14
-14 11 -21 -8 -9 19 12 29 25 11 35 11 55 2 9 -5 17 -6 17 -4 0 7 -77 46 -87
45 -4 -1 -19 -4 -33 -8z"/>
<path d="M3240 2073 c0 -13 39 -39 53 -35 4 1 7 -4 7 -12 0 -8 4 -17 9 -20 5
-4 8 2 7 11 -2 10 -16 25 -32 33 -16 8 -32 20 -36 25 -5 6 -8 5 -8 -2z"/>
<path d="M2380 2062 c0 -4 21 -42 46 -85 l45 -78 32 18 c32 19 57 66 42 80 -4
5 -10 2 -12 -4 -3 -7 -13 -23 -22 -35 l-18 -22 -17 32 c-9 18 -21 30 -26 27
-5 -3 -12 0 -16 6 -4 8 -3 9 4 5 18 -11 14 3 -9 35 -19 27 -49 40 -49 21z"/>
<path d="M3020 2020 c0 -5 7 -7 15 -4 8 4 15 8 15 10 0 2 -7 4 -15 4 -8 0 -15
-4 -15 -10z"/>
<path d="M1663 1987 c-67 -29 -74 -37 -23 -24 39 11 42 10 66 -18 15 -17 31
-42 36 -58 l10 -27 32 20 c20 11 69 24 123 32 l91 12 -32 22 c-55 38 -108 55
-181 60 -58 4 -79 1 -122 -19z"/>
<path d="M3330 2004 c0 -9 35 -58 57 -81 27 -27 29 -22 6 15 -17 27 -63 75
-63 66z"/>
<path d="M3406 1995 c4 -9 15 -20 25 -26 15 -7 17 -6 13 6 -3 8 -10 12 -15 9
-5 -3 -9 2 -9 10 0 9 -4 16 -10 16 -5 0 -7 -7 -4 -15z"/>
<path d="M4130 1999 c-89 -18 -197 -89 -125 -82 37 3 138 -18 180 -38 62 -29
134 -105 167 -176 28 -59 30 -70 26 -160 -3 -85 -7 -106 -33 -157 -16 -32 -49
-75 -72 -96 -56 -49 -56 -65 -2 -56 106 17 226 114 277 224 23 50 27 70 27
157 0 88 -3 107 -27 157 -65 139 -172 216 -318 231 -30 3 -75 1 -100 -4z m215
-58 c75 -35 134 -91 172 -163 25 -48 28 -62 28 -158 0 -92 -3 -112 -26 -160
-31 -66 -96 -133 -161 -166 -26 -13 -50 -24 -53 -24 -3 0 12 26 34 58 57 84
74 145 69 246 -8 146 -82 259 -213 324 -33 17 -79 33 -103 37 -50 8 -47 15 11
32 67 20 169 9 242 -26z"/>
<path d="M3226 1987 c3 -10 9 -15 12 -12 3 3 0 11 -7 18 -10 9 -11 8 -5 -6z"/>
<path d="M1395 1960 c-9 -16 -13 -30 -11 -30 3 0 12 14 21 30 9 17 13 30 11
30 -3 0 -12 -13 -21 -30z"/>
<path d="M3142 1910 c0 -19 2 -27 5 -17 2 9 2 25 0 35 -3 9 -5 1 -5 -18z"/>
<path d="M1680 1921 c0 -10 19 -25 25 -20 1 2 -3 10 -11 17 -8 7 -14 8 -14 3z"/>
<path d="M3244 1893 c-4 -21 -9 -45 -9 -54 -1 -9 -5 -21 -9 -28 -4 -6 -2 -11
3 -11 6 0 12 6 13 13 1 15 3 23 13 70 4 21 5 40 2 43 -2 3 -8 -12 -13 -33z"/>
<path d="M3045 1911 c-3 -5 -1 -12 5 -16 5 -3 10 1 10 9 0 18 -6 21 -15 7z"/>
<path d="M1510 1895 c-11 -13 -10 -14 4 -9 9 3 16 10 16 15 0 13 -6 11 -20 -6z"/>
<path d="M3000 1906 c0 -2 7 -6 15 -10 8 -3 15 -1 15 4 0 6 -7 10 -15 10 -8 0
-15 -2 -15 -4z"/>
<path d="M3450 1880 c-6 -11 -8 -20 -6 -20 3 0 10 9 16 20 6 11 8 20 6 20 -3
0 -10 -9 -16 -20z"/>
<path d="M2720 1856 c0 -20 5 -36 10 -36 6 0 10 13 10 29 0 17 -4 33 -10 36
-6 4 -10 -8 -10 -29z"/>
<path d="M3367 1865 c-9 -13 -13 -26 -8 -29 8 -5 41 34 41 49 0 12 -16 3 -33
-20z"/>
<path d="M3050 1870 c0 -5 5 -10 10 -10 6 0 10 5 10 10 0 6 -4 10 -10 10 -5 0
-10 -4 -10 -10z"/>
<path d="M1536 1857 c3 -10 9 -15 12 -12 3 3 0 11 -7 18 -10 9 -11 8 -5 -6z"/>
<path d="M3075 1840 c-3 -6 1 -7 9 -4 18 7 21 14 7 14 -6 0 -13 -4 -16 -10z"/>
<path d="M3405 1808 c-31 -45 -37 -61 -28 -85 4 -11 8 -11 17 4 37 54 58 96
47 89 -10 -6 -11 -3 -6 13 9 30 4 26 -30 -21z m4 -38 c-24 -45 -28 -49 -26
-20 1 11 4 20 8 20 4 0 11 9 14 20 3 11 10 20 16 20 5 0 -1 -18 -12 -40z"/>
<path d="M1316 1823 c-6 -14 -5 -15 5 -6 7 7 10 15 7 18 -3 3 -9 -2 -12 -12z"/>
<path d="M2610 1835 c0 -15 34 -55 46 -55 20 0 17 14 -9 38 -23 21 -37 28 -37
17z"/>
<path d="M3327 1810 c-9 -11 -13 -20 -7 -20 5 0 14 9 20 20 6 11 9 20 8 20 -2
0 -11 -9 -21 -20z"/>
<path d="M2541 1811 c-11 -7 -10 -14 3 -39 17 -33 36 -50 36 -32 0 6 4 9 8 6
4 -2 13 -1 20 3 8 5 2 17 -21 39 -21 21 -37 28 -46 23z"/>
<path d="M1131 1782 c-17 -31 -13 -40 5 -14 9 13 14 26 11 29 -3 2 -10 -4 -16
-15z"/>
<path d="M1296 1783 c-6 -14 -5 -15 5 -6 7 7 10 15 7 18 -3 3 -9 -2 -12 -12z"/>
<path d="M3274 1769 c-8 -14 14 -19 25 -6 8 10 7 14 -5 14 -8 0 -17 -4 -20 -8z"/>
<path d="M1050 1737 c0 -8 7 -14 15 -14 11 0 12 4 4 14 -6 7 -13 13 -15 13 -2
0 -4 -6 -4 -13z"/>
<path d="M3225 1730 c-3 -6 1 -7 9 -4 18 7 21 14 7 14 -6 0 -13 -4 -16 -10z"/>
<path d="M3306 1715 c-11 -8 -15 -15 -10 -15 6 0 19 7 30 15 10 8 15 14 9 14
-5 0 -19 -6 -29 -14z"/>
<path d="M1085 1699 c-4 -6 -5 -12 -2 -15 2 -3 7 2 10 11 7 17 1 20 -8 4z"/>
<path d="M2926 1683 c-12 -12 -5 -23 14 -23 11 0 20 4 20 9 0 11 -26 22 -34
14z"/>
<path d="M3065 1680 c-3 -6 1 -7 9 -4 18 7 21 14 7 14 -6 0 -13 -4 -16 -10z"/>
<path d="M3335 1679 c-4 -6 -5 -12 -2 -15 2 -3 7 2 10 11 7 17 1 20 -8 4z"/>
<path d="M1216 1645 c-9 -26 -7 -32 5 -12 6 10 9 21 6 23 -2 3 -7 -2 -11 -11z"/>
<path d="M3316 1641 c-4 -5 -3 -16 0 -25 6 -15 8 -15 20 1 19 25 17 41 -2 17
-13 -16 -15 -16 -10 -1 6 18 1 23 -8 8z"/>
<path d="M3100 1620 c0 -5 7 -7 15 -4 8 4 15 8 15 10 0 2 -7 4 -15 4 -8 0 -15
-4 -15 -10z"/>
<path d="M3749 1552 c-53 -42 -156 -125 -230 -183 -74 -59 -154 -125 -179
-147 l-45 -40 33 4 c25 3 57 25 126 86 50 46 108 97 127 113 32 27 142 124
238 212 61 55 30 35 -70 -45z"/>
<path d="M2900 1610 c0 -5 7 -10 16 -10 12 0 14 -9 10 -47 l-5 -48 10 43 c6
23 14 42 20 42 5 0 9 7 9 15 0 10 -10 15 -30 15 -16 0 -30 -4 -30 -10z"/>
<path d="M3282 1584 c-9 -18 -9 -23 -1 -18 8 4 9 -1 4 -17 -9 -28 -3 -24 15
10 9 18 9 22 0 16 -9 -5 -10 -1 -5 14 9 29 1 26 -13 -5z"/>
<path d="M1150 1530 c-11 -22 -18 -40 -15 -40 2 0 14 18 25 40 11 22 18 40 15
40 -2 0 -14 -18 -25 -40z"/>
<path d="M3405 1519 c-38 -54 -62 -102 -29 -59 28 35 75 110 70 110 -2 0 -21
-23 -41 -51z"/>
<path d="M3243 1515 c-11 -22 -22 -34 -31 -30 -7 3 -10 0 -7 -6 4 -6 14 -8 22
-5 11 4 13 2 9 -9 -8 -22 2 -18 15 6 8 15 8 19 0 15 -6 -4 -11 -3 -11 2 0 13
26 33 33 26 3 -3 3 3 0 15 -7 28 -11 27 -30 -14z"/>
<path d="M1425 1500 c-3 -11 -2 -27 2 -35 6 -11 9 -5 9 20 0 40 -2 43 -11 15z"/>
<path d="M2912 1475 c0 -16 2 -22 5 -12 2 9 2 23 0 30 -3 6 -5 -1 -5 -18z"/>
<path d="M1107 1457 c-40 -62 -189 -322 -198 -345 -9 -26 -8 -26 6 -7 9 11 22
28 30 38 8 9 15 19 15 21 0 2 39 72 86 156 47 84 83 154 81 156 -2 3 -11 -6
-20 -19z"/>
<path d="M2984 1345 c0 -66 1 -92 3 -57 2 34 2 88 0 120 -2 31 -3 3 -3 -63z"/>
<path d="M2746 1442 c-2 -4 -1 -14 5 -22 6 -11 9 -12 9 -2 0 7 4 10 10 7 6 -3
7 1 4 9 -7 17 -20 21 -28 8z"/>
<path d="M3449 1423 l-24 -28 28 24 c25 23 32 31 24 31 -2 0 -14 -12 -28 -27z"/>
<path d="M3205 1409 c-9 -17 -15 -33 -13 -35 3 -2 12 12 21 31 21 43 13 47 -8
4z"/>
<path d="M3341 1437 c3 -4 -12 -26 -33 -48 -23 -24 -37 -47 -34 -56 3 -8 2
-12 -3 -9 -9 6 -59 -45 -86 -89 -16 -27 -16 -28 -1 -16 15 13 17 12 12 -13 -4
-23 -3 -26 10 -15 8 6 12 14 10 17 -3 2 2 12 11 21 13 13 93 131 126 188 4 6
2 15 -5 19 -7 4 -10 4 -7 1z"/>
<path d="M1586 1395 c-9 -14 -31 -34 -47 -44 l-31 -19 36 -27 c43 -33 126 -65
168 -65 l32 0 -41 43 c-22 23 -54 64 -70 90 l-30 48 -17 -26z"/>
<path d="M4068 1399 c-20 -11 -526 -229 -533 -229 -2 0 -19 -9 -37 -20 l-33
-21 30 6 c24 5 27 4 15 -5 -16 -13 -15 -12 53 12 15 6 101 46 190 90 89 44
204 100 255 124 50 23 92 45 92 48 0 9 -13 7 -32 -5z"/>
<path d="M3340 1303 c-35 -38 -75 -81 -89 -98 l-26 -30 33 30 c38 34 157 165
150 165 -3 0 -33 -30 -68 -67z"/>
<path d="M3078 1315 c3 -27 6 -61 5 -74 -1 -15 2 -20 7 -11 6 9 8 10 12 0 2
-7 16 7 32 30 22 34 26 47 18 64 -9 20 -10 20 -28 -11 -11 -18 -22 -33 -25
-33 -3 0 -11 19 -17 43 l-11 42 7 -50z"/>
<path d="M3694 1344 c-18 -14 -18 -15 4 -4 12 6 22 13 22 15 0 8 -5 6 -26 -11z"/>
<path d="M3545 1255 c-49 -30 -98 -60 -108 -66 -11 -6 -17 -13 -14 -15 4 -4
190 107 212 127 18 18 -2 7 -90 -46z"/>
<path d="M3715 1110 c-33 -10 -54 -19 -47 -19 17 -1 122 29 122 35 0 6 -9 4
-75 -16z"/>
<path d="M2650 1106 c0 -2 23 -18 51 -36 60 -37 60 -51 -1 -20 -33 17 -45 19
-56 9 -21 -18 -17 -24 25 -44 33 -14 45 -15 72 -6 39 14 49 14 49 1 0 -5 -9
-10 -19 -10 -11 0 -23 -4 -26 -10 -3 -5 -16 -10 -28 -10 -22 -1 -22 -1 -2 -16
19 -15 17 -15 -31 -9 -46 6 -52 4 -57 -14 -4 -17 1 -22 32 -28 20 -3 62 -7 93
-7 39 -1 58 -5 58 -13 0 -13 -55 -19 -139 -14 -25 2 -41 -1 -38 -6 4 -6 52
-11 107 -12 95 -2 102 0 107 19 3 11 8 20 12 21 51 6 95 30 112 60 26 49 -52
96 -201 123 -27 5 -32 4 -22 -6 16 -16 16 -33 0 -20 -16 12 -87 52 -93 52 -3
0 -5 -2 -5 -4z m240 -71 c0 -8 -4 -15 -10 -15 -5 0 -10 7 -10 15 0 8 5 15 10
15 6 0 10 -7 10 -15z m-75 -6 c11 -17 -1 -21 -15 -4 -8 9 -8 15 -2 15 6 0 14
-5 17 -11z"/>
<path d="M2645 990 c3 -5 16 -10 28 -10 18 0 19 2 7 10 -20 13 -43 13 -35 0z"/>
<path d="M4592 428 c-24 -24 -4 -118 25 -118 19 0 33 -34 22 -51 -8 -12 -11
-11 -23 4 -17 22 -36 22 -36 -2 0 -49 78 -56 94 -8 8 22 6 35 -9 62 -10 19
-24 35 -31 35 -15 0 -28 35 -19 51 5 7 12 5 24 -5 25 -23 45 -6 25 22 -17 24
-53 29 -72 10z"/>
<path d="M4300 426 c0 -9 30 -14 35 -6 4 6 -3 10 -14 10 -12 0 -21 -2 -21 -4z"/>
<path d="M4409 378 c-2 -134 5 -158 47 -158 43 0 57 41 55 158 -1 39 -5 52
-16 52 -12 0 -15 -16 -15 -85 0 -69 -3 -87 -16 -92 -22 -8 -32 12 -32 66 0 93
-2 111 -12 111 -5 0 -10 -24 -11 -52z"/>
<path d="M721 345 c0 -45 3 -63 8 -50 5 11 6 25 4 31 -2 7 0 15 5 18 6 3 15
-8 21 -24 5 -17 12 -30 15 -30 9 0 -26 94 -40 110 -12 12 -14 4 -13 -55z"/>
<path d="M792 370 c0 -14 2 -19 5 -12 2 6 2 18 0 25 -3 6 -5 1 -5 -13z"/>
<path d="M540 338 c0 -43 -12 -60 -36 -53 -17 6 -17 5 -2 -4 30 -20 48 -3 48
45 0 24 -2 44 -5 44 -3 0 -5 -15 -5 -32z"/>
<path d="M609 327 c0 -1 -2 -18 -3 -37 -5 -56 2 -70 34 -70 38 0 48 18 13 22
-22 2 -28 8 -28 27 0 16 6 25 18 27 29 4 28 9 -3 21 -17 6 -30 11 -31 10z"/>
<path d="M361 270 c0 -8 4 -22 9 -30 12 -18 12 -2 0 25 -6 13 -9 15 -9 5z"/>
<path d="M416 255 c-9 -26 -7 -32 5 -12 6 10 9 21 6 23 -2 3 -7 -2 -11 -11z"/>
<path d="M720 244 c0 -14 4 -23 9 -20 5 3 7 15 4 26 -7 28 -13 25 -13 -6z"/>
<path d="M785 241 c-3 -5 -2 -12 3 -15 5 -3 9 1 9 9 0 17 -3 19 -12 6z"/>
<path d="M490 230 c0 -5 11 -10 24 -10 14 0 28 5 31 10 4 6 -7 10 -24 10 -17
0 -31 -4 -31 -10z"/>
</g>
</svg>
